<?xml version="1.0" encoding="UTF-8"?>
<svg xmlns="http://www.w3.org/2000/svg" viewBox="0 0 500.8 186.03">
  <defs>
    <style>
      .cls-1 {
        fill: #797b7d;
      }

      .cls-1, .cls-2, .cls-3, .cls-4, .cls-5, .cls-6, .cls-7 {
        stroke-width: 0px;
      }

      .cls-8 {
        isolation: isolate;
      }

      .cls-2 {
        fill: #fcfdff;
      }

      .cls-3 {
        fill: #87d1f3;
      }

      .cls-4 {
        fill: #67686b;
      }

      .cls-5 {
        fill: #838587;
      }

      .cls-6 {
        fill: #929497;
        mix-blend-mode: multiply;
        opacity: .55;
      }

      .cls-7 {
        fill: #d0d2d3;
      }
    </style>
  </defs>
  <g class="cls-8">
    <g id="Laag_1" data-name="Laag 1">
      <g>
        <path class="cls-6" d="M480.72,85.58c-1.72,0-3.48,0-5.27,0l19.24-75.02h-15.25c-3.37,0-6.56,1.49-8.72,4.07l-48.13,57.44-39.82,12.33c-73.63-1.3-161.04-3.21-231.64-3.21-29.87,0-55.48,3.63-76.69,9.33h0s0,0,0,0c-1.77.48-3.5.97-5.21,1.47-.21.06-.42.12-.64.19C18.12,107.21-5.2,134.02.97,148.84c8.9,21.37,57.57,34.42,106.83,34.42h131.92l35.13,1.8.08-1.01,38.67,1.98.11-1.41,18.48-1.16s.09-1.02.24-2.64c28.67-4.09,56.47-13.27,82.06-27.21l69.01-37.58c5.15-1.37,9.23-5.29,10.82-10.38h0c2.96-9.51-3.65-20.07-13.6-20.07Z"/>
        <g>
          <path class="cls-7" d="M485.22,0c-3.37,0-6.56,1.49-8.72,4.07l-48.13,57.44-45.78,14.17,88.27,4.05L492.56,0h-7.34Z"/>
          <polygon class="cls-1" points="500.46 0 492.56 0 470.84 79.73 479.91 80.15 500.46 0"/>
          <path class="cls-2" d="M156.89,70.63C50.23,70.63-2.16,116.92,6.74,138.29c8.9,21.37,57.57,34.42,106.83,34.42h190.21c40.69,0,80.74-10.2,116.48-29.66l69.01-37.58c5.15-1.37,9.23-5.29,10.82-10.38h0c2.96-9.51-3.65-20.07-13.6-20.07-77.9-.04-222.94-4.4-329.6-4.4Z"/>
          <g>
            <g>
              <circle class="cls-5" cx="136.71" cy="108.02" r="12.17" transform="translate(-21.25 34.49) rotate(-13.35)"/>
              <circle class="cls-3" cx="136.71" cy="108.02" r="9.79" transform="translate(-15.19 193.36) rotate(-67.64)"/>
            </g>
            <g>
              <circle class="cls-5" cx="166.68" cy="108.02" r="12.17" transform="translate(-31.94 106.87) rotate(-32.61)"/>
              <circle class="cls-3" cx="166.68" cy="108.02" r="9.79" transform="translate(-31.94 106.67) rotate(-32.56)"/>
            </g>
            <g>
              <circle class="cls-5" cx="196.65" cy="108.02" r="12.17" transform="translate(-19.63 48.34) rotate(-13.35)"/>
              <circle class="cls-3" cx="196.65" cy="108.02" r="9.79" transform="translate(21.95 248.8) rotate(-67.64)"/>
            </g>
            <g>
              <circle class="cls-5" cx="226.62" cy="108.02" r="12.17" transform="translate(-18.29 163.18) rotate(-38.18)"/>
              <circle class="cls-3" cx="226.62" cy="108.02" r="9.79" transform="translate(-18.34 162.97) rotate(-38.13)"/>
            </g>
            <g>
              <circle class="cls-5" cx="256.6" cy="108.02" r="12.17" transform="translate(-17.95 61.84) rotate(-13.28)"/>
              <circle class="cls-3" cx="256.6" cy="108.02" r="9.79" transform="translate(58.6 303.75) rotate(-67.5)"/>
            </g>
            <g>
              <circle class="cls-5" cx="286.57" cy="108.02" r="12.17" transform="translate(-17.15 68.73) rotate(-13.28)"/>
              <circle class="cls-3" cx="286.57" cy="108.02" r="9.79" transform="translate(-17.15 68.73) rotate(-13.28)"/>
            </g>
            <g>
              <circle class="cls-5" cx="316.54" cy="108.02" r="12.17" transform="translate(16.33 255.46) rotate(-45)"/>
              <circle class="cls-3" cx="316.54" cy="108.02" r="9.79" transform="translate(95.61 359.12) rotate(-67.5)"/>
            </g>
            <g>
              <circle class="cls-5" cx="346.51" cy="108.02" r="12.17" transform="translate(-15.55 82.5) rotate(-13.28)"/>
              <circle class="cls-3" cx="346.51" cy="108.02" r="9.79" transform="translate(-15.55 82.5) rotate(-13.28)"/>
            </g>
            <rect class="cls-5" x="97.79" y="101.97" width="15.13" height="31.68" rx="2.9" ry="2.9"/>
            <rect class="cls-5" x="365.88" y="101.97" width="15.13" height="31.68" rx="2.9" ry="2.9"/>
          </g>
          <g>
            <path class="cls-7" d="M201.27,134.51s48.67-5.27,83.68-4.08l97.63,15.13v5.93l-118.7,9.2-62.61-26.19Z"/>
            <path class="cls-7" d="M228.68,135.84l128.92-29.05s11.82-3.04,24.66-3.04h20.26c3.2,0,4.19,4.33,1.31,5.72l-89.13,42.93-86.02-16.55Z"/>
            <g>
              <path class="cls-1" d="M213.02,142.32c-.72,6.15-1.62,17.35.33,24.51.7,2.58,3.03,4.39,5.71,4.53l61.56,3.15,2.51-31.58s-37.63-11.24-65.03-6.04c-2.7.51-4.75,2.7-5.07,5.43Z"/>
              <path class="cls-7" d="M217.69,167.26c-1.95-7.42-1.05-19.03-.33-25.4.32-2.82,2.38-5.1,5.07-5.63.09-.02.19-.03.28-.05-1.57.19-3.11.43-4.63.71-2.7.51-4.75,2.7-5.07,5.43-.72,6.15-1.62,17.35.33,24.51.7,2.58,3.03,4.39,5.71,4.53l2.28.12c-1.75-.74-3.13-2.26-3.64-4.21Z"/>
              <path class="cls-4" d="M282.79,147.13s15.87,1.64,15.7,2.15-2.17,23.06-2.17,23.06l-15.61.98,2.08-26.19Z"/>
              <polygon class="cls-4" points="298.06 153.29 310.19 156.29 310.19 165.82 296.53 170.05 298.06 153.29"/>
            </g>
            <g>
              <path class="cls-1" d="M239.33,137.37c-.86,7.28-1.91,20.55.39,29.02.83,3.06,3.59,5.2,6.76,5.36l72.89,3.73,2.97-37.39s-44.56-13.31-77-7.15c-3.19.61-5.62,3.2-6,6.43Z"/>
              <path class="cls-7" d="M244.87,166.9c-2.3-8.78-1.25-22.53-.39-30.08.38-3.34,2.81-6.03,6-6.66.11-.02.22-.04.33-.06-1.86.23-3.69.5-5.48.85-3.19.61-5.62,3.2-6,6.43-.86,7.28-1.91,20.55.39,29.02.83,3.06,3.59,5.2,6.76,5.36l2.7.14c-2.07-.87-3.7-2.68-4.31-4.99Z"/>
              <path class="cls-4" d="M321.94,143.07s18.79,1.95,18.6,2.54-2.57,27.3-2.57,27.3l-18.48,1.16,2.46-31Z"/>
              <polygon class="cls-4" points="340.03 150.36 354.39 153.91 354.39 165.19 338.21 170.2 340.03 150.36"/>
            </g>
          </g>
          <g>
            <path class="cls-5" d="M56.62,87.8c-7.87,3.18-14.85,6.64-20.92,10.26,4.39,5.99,12.13,9.96,20.95,9.96,2.97,0,5.82-.45,8.47-1.28-2.33-8.76-5.78-15.01-8.5-18.94Z"/>
            <path class="cls-5" d="M80.2,79.96c-7.53,2.02-14.5,4.31-20.92,6.79,2.78,4.11,6.12,10.37,8.44,19.02,8.13-3.51,13.72-10.75,13.72-19.13,0-2.33-.44-4.58-1.24-6.68Z"/>
          </g>
        </g>
      </g>
    </g>
  </g>
</svg>